<?xml version="1.0" encoding="utf-8"?>
<!-- Generator: Adobe Illustrator 24.3.0, SVG Export Plug-In . SVG Version: 6.00 Build 0)  -->
<svg version="1.1" id="Layer_1" xmlns="http://www.w3.org/2000/svg" xmlns:xlink="http://www.w3.org/1999/xlink" x="0px" y="0px"
	 viewBox="0 0 1327.87 400" style="enable-background:new 0 0 1327.87 400;" xml:space="preserve">
<style type="text/css">
	.st0{fill:#3C2964;}
	.st1{fill:#EC6A33;}
	.st2{fill:#3D286A;}
	.st3{fill:#F79020;}
	.st4{fill:#F26733;}
	.st5{fill:#B8B2D9;}
	.st6{fill:#3D2866;}
	.st7{fill:#5B429A;}
	.st8{fill:#B7B2D7;}
</style>
<g>
	<g>
		<path class="st0" d="M468.12,277.05l-2.58-12.13h-0.91c-9.33,10.87-22.61,15.05-37,15.05c-27.07,0-44.2-19.76-44.2-42.71
			c0-36.55,33.09-52.53,77.35-52.63v-1.43c0-5.89-4.66-11.88-21.85-11.88c-14.12,0-28.47,4.81-37.38,9.89l-8.59-31.17
			c8.72-4.61,27.95-12.13,55.27-12.13c47.3,0,61.81,27.25,61.81,60.08v46.19c0,13.19,0.74,25.58,2.23,32.87H468.12z M462.34,214.48
			c-19.29,0.1-31.05,5.61-31.05,17.89c0,9.16,5.9,13.59,13.84,13.59c6.77,0,14.22-4.59,16.55-11.91c0.56-1.91,0.66-4.38,0.66-6.77
			V214.48z"/>
		<path class="st0" d="M565.14,140.83l13.74,57.27c2.66,11.35,4.51,22.12,6.28,33.44h0.91c1.67-11.77,3.34-21.71,5.83-33.44
			l12.78-57.27h51.25l-47.91,136.22h-48.92l-47.24-136.22H565.14z"/>
		<path class="st0" d="M697.29,226.48c1.45,11.05,16.48,17.29,33.99,17.29c12.65,0,24.43-1.51,36.12-5.14l6.18,32.93
			c-15.54,6.07-33.1,8.21-49.75,8.21c-46.94,0-73.4-26-73.4-69.1c0-33.98,21.4-72.77,69.19-72.77c42.18,0,61.26,30.55,61.26,69.17
			c0,8.8-0.91,15.95-1.75,19.4H697.29z M735.74,193.33c0-8.7-3.47-23.1-18.53-23.1c-14.25,0-19.75,13.94-20.46,23.1H735.74z"/>
		<path class="st0" d="M792.08,186.77c0-17.57-0.56-33.16-1.11-45.94h42.4l2.23,17.09h0.91c5.39-7.62,18.37-20.01,40.04-20.01
			c31.47,0,47.68,21.95,47.68,58v81.14h-49.24v-75.7c0-14.71-5-23.92-16.48-23.92c-9,0-13.34,6.12-15.67,11.38
			c-1.11,2.49-1.52,6.49-1.52,10.44v77.79h-49.24V186.77z"/>
		<path class="st1" d="M943.94,235.89c7.53,4.56,24.26,9.85,36.22,9.85c10.21,0,14.5-2.42,14.5-7.62c0-5.11-3.29-7.45-17.46-12.3
			c-29.22-10.01-38.53-26.12-38.35-41.26c0-26.88,22.56-46.64,57.63-46.64c16.15,0,30.42,3.55,39.04,7.5l-7.75,33.48
			c-6.36-3.12-18.2-7.2-28.75-7.2c-8.54,0-13.41,2.56-13.41,7.9c0,4.53,4.13,7.3,19.87,12.81c26.28,9.26,35.84,23.33,36.02,42.11
			c0,26.3-20.45,45.26-60.98,45.26c-18.02,0-34.65-3.93-44.79-9.34L943.94,235.89z"/>
		<path class="st1" d="M1093.3,140.83l15.69,62.19c1.83,7.45,4.01,16.92,5.55,23.67h0.91c1.55-7,3.17-16.47,4.54-23.46l12.04-62.39
			h51.86l-29.49,90.45c-18.29,51.88-31.12,72.94-45.86,86.53c-15.21,13.77-32.13,18.9-43.77,20.11l-10.66-41.34
			c5.24-0.78,11.2-2.87,17.2-5.68c6.16-2.72,12.27-8.11,15.41-12.58c1.47-1.94,2.48-4.13,2.48-6.07c0-1.66-0.38-3.68-1.83-6.93
			l-48.44-124.49H1093.3z"/>
		<path class="st1" d="M1183.83,235.89c7.53,4.56,24.26,9.85,36.22,9.85c10.21,0,14.5-2.42,14.5-7.62c0-5.11-3.29-7.45-17.46-12.3
			c-29.22-10.01-38.53-26.12-38.35-41.26c0-26.88,22.56-46.64,57.63-46.64c16.15,0,30.42,3.55,39.04,7.5l-7.75,33.48
			c-6.36-3.12-18.2-7.2-28.75-7.2c-8.54,0-13.41,2.56-13.41,7.9c0,4.53,4.13,7.3,19.87,12.81c26.28,9.26,35.84,23.33,36.02,42.11
			c0,26.3-20.45,45.26-60.98,45.26c-18.02,0-34.65-3.93-44.79-9.34L1183.83,235.89z"/>
	</g>
	<g>
		<g>
			<path class="st2" d="M436.04,330.77c-1.51,0.79-4.84,1.9-9.1,1.9c-9.56,0-15.77-6.54-15.77-16.23c0-9.75,6.68-16.82,17.02-16.82
				c3.4,0,6.41,0.85,7.98,1.64l-1.31,4.45c-1.37-0.79-3.53-1.5-6.68-1.5c-7.26,0-11.19,5.37-11.19,11.98
				c0,7.33,4.71,11.85,10.99,11.85c3.27,0,5.43-0.85,7.07-1.57L436.04,330.77z"/>
			<path class="st2" d="M507.71,315.85c0,11.71-8.12,16.82-15.77,16.82c-8.57,0-15.18-6.28-15.18-16.3
				c0-10.6,6.94-16.82,15.71-16.82C501.56,299.55,507.71,306.16,507.71,315.85z M482.58,316.17c0,6.94,3.99,12.17,9.62,12.17
				c5.5,0,9.62-5.17,9.62-12.3c0-5.37-2.68-12.17-9.49-12.17C485.52,303.87,482.58,310.15,482.58,316.17z"/>
			<path class="st2" d="M551.62,308.85c0-3.27-0.07-5.96-0.26-8.57h5.1l0.33,5.24h0.13c1.57-3.01,5.24-5.96,10.47-5.96
				c4.38,0,11.19,2.62,11.19,13.48v18.91h-5.76v-18.26c0-5.1-1.9-9.36-7.33-9.36c-3.8,0-6.74,2.68-7.72,5.89
				c-0.26,0.72-0.39,1.7-0.39,2.68v19.04h-5.76V308.85z"/>
			<path class="st2" d="M623.81,326.06c1.7,1.11,4.71,2.29,7.59,2.29c4.19,0,6.15-2.09,6.15-4.71c0-2.75-1.64-4.25-5.89-5.82
				c-5.69-2.03-8.38-5.17-8.38-8.97c0-5.1,4.12-9.29,10.93-9.29c3.21,0,6.02,0.92,7.79,1.96l-1.44,4.19
				c-1.24-0.79-3.53-1.83-6.48-1.83c-3.4,0-5.3,1.96-5.3,4.32c0,2.62,1.9,3.8,6.02,5.37c5.5,2.09,8.31,4.84,8.31,9.56
				c0,5.56-4.32,9.55-11.85,9.55c-3.47,0-6.68-0.92-8.9-2.23L623.81,326.06z"/>
			<path class="st2" d="M713.67,323.31c0,3.27,0.07,6.15,0.26,8.64h-5.1l-0.33-5.17h-0.13c-1.5,2.55-4.84,5.89-10.47,5.89
				c-4.97,0-10.93-2.75-10.93-13.87v-18.52h5.76v17.54c0,6.02,1.83,10.08,7.07,10.08c3.86,0,6.54-2.68,7.59-5.24
				c0.33-0.85,0.52-1.9,0.52-2.95v-19.44h5.76V323.31z"/>
			<path class="st2" d="M759.88,285.48h5.76v46.47h-5.76V285.48z"/>
			<path class="st2" d="M818.91,292.68v7.59h8.25v4.38h-8.25v17.08c0,3.93,1.11,6.15,4.32,6.15c1.57,0,2.49-0.13,3.34-0.39
				l0.26,4.32c-1.11,0.46-2.88,0.85-5.1,0.85c-2.68,0-4.84-0.92-6.22-2.49c-1.64-1.7-2.23-4.52-2.23-8.25v-17.28h-4.91v-4.38h4.91
				v-5.82L818.91,292.68z"/>
			<path class="st2" d="M876.7,291.37c0.07,1.96-1.37,3.53-3.66,3.53c-2.03,0-3.47-1.57-3.47-3.53c0-2.03,1.51-3.6,3.6-3.6
				C875.32,287.77,876.7,289.34,876.7,291.37z M870.28,331.95v-31.68h5.76v31.68H870.28z"/>
			<path class="st2" d="M922.25,308.85c0-3.27-0.07-5.96-0.26-8.57h5.1l0.33,5.24h0.13c1.57-3.01,5.24-5.96,10.47-5.96
				c4.38,0,11.19,2.62,11.19,13.48v18.91h-5.76v-18.26c0-5.1-1.9-9.36-7.33-9.36c-3.8,0-6.74,2.68-7.72,5.89
				c-0.26,0.72-0.39,1.7-0.39,2.68v19.04h-5.76V308.85z"/>
			<path class="st2" d="M1022.25,327.37c0,7.26-1.44,11.71-4.52,14.46c-3.08,2.88-7.53,3.8-11.52,3.8c-3.8,0-7.98-0.92-10.54-2.62
				l1.44-4.38c2.09,1.31,5.37,2.49,9.29,2.49c5.89,0,10.21-3.08,10.21-11.06v-3.53h-0.13c-1.77,2.95-5.17,5.3-10.08,5.3
				c-7.85,0-13.48-6.68-13.48-15.44c0-10.73,7-16.82,14.27-16.82c5.5,0,8.51,2.88,9.88,5.5h0.13l0.26-4.78h5.04
				c-0.13,2.29-0.26,4.84-0.26,8.7V327.37z M1016.56,312.77c0-0.98-0.07-1.83-0.33-2.62c-1.05-3.34-3.86-6.09-8.05-6.09
				c-5.5,0-9.42,4.65-9.42,11.98c0,6.22,3.14,11.39,9.36,11.39c3.53,0,6.74-2.23,7.98-5.89c0.33-0.98,0.46-2.09,0.46-3.08V312.77z"
				/>
		</g>
	</g>
</g>
<g>
	<g>
		<path class="st3" d="M268.94,87.5c-11.24-5.26-24.96-12.93-47.57-10.06c-76.9,9.77-108.86,124.82-108.86,124.82
			c0-73.31,43.45-164.15,98.24-161.87c27.5,1.14,66.46,28.62,92.19,71.33C302.95,111.72,282.37,93.27,268.94,87.5z"/>
		<path class="st4" d="M362.11,209.68c0,0-50.78-98.82-139.86-99.05c-67.06-0.17-101.55,67.64-96.1,55.84
			c25.35-54.84,53.79-89.41,101.93-90.81c21.07-0.61,48.14,7.69,76.5,37.77C322.45,132.37,350.19,180.58,362.11,209.68z"/>
	</g>
	<g>
		<path class="st5" d="M72.9,221.29c0.47,12.4-0.05,28.11,12.87,46.89c43.94,63.87,160.84,39.51,160.84,39.51
			C181.45,341.3,80.8,344.33,57.7,294.59c-11.59-24.97-5.04-72.18,21.12-114.63C78.82,179.96,71.87,206.7,72.9,221.29z"/>
		<path class="st6" d="M138.76,82.47c0,0-64.54,90.44-23.91,169.7c30.59,59.67,106.67,59.24,93.68,59.8
			c-60.35,2.62-104.12-6.81-127.43-48.95c-10.2-18.45-15.23-46.31-1.51-85.3C88.24,153.16,118.37,106.4,138.76,82.47z"/>
	</g>
	<g>
		<path class="st7" d="M292.32,329.4c10.15-7.15,23.62-15.25,32.34-36.3c29.68-71.61-54.35-156.45-54.35-156.45
			c63.64,36.38,120.95,119.18,91.78,165.62c-14.64,23.31-57.82,43.5-107.67,44.64C254.41,346.91,280.64,338.2,292.32,329.4z"/>
		<path class="st8" d="M140.01,349.66c0,0,111,4.95,155.4-72.27c33.43-58.13-8.33-121.73-0.79-111.14
			c35.03,49.22,50.93,91.07,28.25,133.55c-9.93,18.6-30.57,37.97-70.75,47.67C226.81,353.59,171.18,353.75,140.01,349.66z"/>
	</g>
</g>
</svg>
